HIERARCHY
ROOT hip
{
  OFFSET 0 0 0
  CHANNELS 6 Xposition Yposition Zposition Zrotation Yrotation Xrotation
  JOINT abdomen
  {
    OFFSET 0 20.6881 -0.73152
    CHANNELS 3 Zrotation Xrotation Yrotation
    JOINT chest
    {
      OFFSET 0 11.7043 -0.48768
      CHANNELS 3 Zrotation Xrotation Yrotation
      JOINT neck
      {
        OFFSET 0 22.1894 -2.19456
        CHANNELS 3 Zrotation Xrotation Yrotation
        JOINT head
        {
          OFFSET -0.24384 7.07133 1.2192
          CHANNELS 3 Zrotation Xrotation Yrotation
          JOINT leftEye
          {
            OFFSET 4.14528 8.04674 8.04672
            CHANNELS 3 Zrotation Xrotation Yrotation
            End Site
            {
              OFFSET 1 0 0
            }
          }
          JOINT rightEye
          {
            OFFSET -3.6576 8.04674 8.04672
            CHANNELS 3 Zrotation Xrotation Yrotation
            End Site
            {
              OFFSET 1 0 0
            }
          }
        }
      }
      JOINT rCollar
      {
        OFFSET -2.68224 19.2634 -4.8768
        CHANNELS 3 Zrotation Xrotation Yrotation
        JOINT rShldr
        {
          OFFSET -8.77824 -1.95073 1.46304
          CHANNELS 3 Zrotation Xrotation Yrotation
          JOINT rForeArm
          {
            OFFSET -28.1742 -1.7115 0.48768
            CHANNELS 3 Zrotation Xrotation Yrotation
            JOINT rHand
            {
              OFFSET -22.5879 0.773209 7.07136
              CHANNELS 3 Zrotation Xrotation Yrotation
              JOINT rThumb1
              {
                OFFSET -1.2192 -0.487915 3.41376
                CHANNELS 3 Zrotation Xrotation Yrotation
                JOINT rThumb2
                {
                  OFFSET -3.37035 -0.52449 3.41376
                  CHANNELS 3 Zrotation Xrotation Yrotation
                  End Site
                  {
                    OFFSET -1.78271 -1.18214 1.43049
                  }
                }
              }
              JOINT rIndex1
              {
                OFFSET -7.75947 0.938293 5.60832
                CHANNELS 3 Zrotation Xrotation Yrotation
                JOINT rIndex2
                {
                  OFFSET -2.54057 -0.884171 1.56538
                  CHANNELS 3 Zrotation Xrotation Yrotation
                  End Site
                  {
                    OFFSET -1.62519 -0.234802 1.16502
                  }
                }
              }
              JOINT rMid1
              {
                OFFSET -8.24714 1.18213 3.41376
                CHANNELS 3 Zrotation Xrotation Yrotation
                JOINT rMid2
                {
                  OFFSET -3.10165 -0.590103 1.0647
                  CHANNELS 3 Zrotation Xrotation Yrotation
                  End Site
                  {
                    OFFSET -2.48547 -0.328903 0.83742
                  }
                }
              }
              JOINT rRing1
              {
                OFFSET -8.82822 0.546677 1.51678
                CHANNELS 3 Zrotation Xrotation Yrotation
                JOINT rRing2
                {
                  OFFSET -2.60934 -0.819778 -0.0198488
                  CHANNELS 3 Zrotation Xrotation Yrotation
                  End Site
                  {
                    OFFSET -2.33842 -0.294052 0.168128
                  }
                }
              }
              JOINT rPinky1
              {
                OFFSET -8.27202 -0.0477905 -0.4584
                CHANNELS 3 Zrotation Xrotation Yrotation
                JOINT rPinky2
                {
                  OFFSET -1.82734 -0.647385 -0.700984
                  CHANNELS 3 Zrotation Xrotation Yrotation
                  End Site
                  {
                    OFFSET -1.69225 -0.51767 -0.607171
                  }
                }
              }
            }
          }
        }
      }
      JOINT lCollar
      {
        OFFSET 2.68224 19.2634 -4.8768
        CHANNELS 3 Zrotation Xrotation Yrotation
        JOINT lShldr
        {
          OFFSET 8.77824 -1.95073 1.46304
          CHANNELS 3 Zrotation Xrotation Yrotation
          JOINT lForeArm
          {
            OFFSET 28.1742 -1.7115 0.48768
            CHANNELS 3 Zrotation Xrotation Yrotation
            JOINT lHand
            {
              OFFSET 22.5879 0.773209 7.07136
              CHANNELS 3 Zrotation Xrotation Yrotation
              JOINT lThumb1
              {
                OFFSET 1.2192 -0.487915 3.41376
                CHANNELS 3 Zrotation Xrotation Yrotation
                JOINT lThumb2
                {
                  OFFSET 3.37035 -0.52449 3.41376
                  CHANNELS 3 Zrotation Xrotation Yrotation
                  End Site
                  {
                    OFFSET 1.78271 -1.18214 1.43049
                  }
                }
              }
              JOINT lIndex1
              {
                OFFSET 7.75947 0.938293 5.60832
                CHANNELS 3 Zrotation Xrotation Yrotation
                JOINT lIndex2
                {
                  OFFSET 2.54057 -0.884171 1.56538
                  CHANNELS 3 Zrotation Xrotation Yrotation
                  End Site
                  {
                    OFFSET 1.62519 -0.234802 1.16502
                  }
                }
              }
              JOINT lMid1
              {
                OFFSET 8.24714 1.18213 3.41376
                CHANNELS 3 Zrotation Xrotation Yrotation
                JOINT lMid2
                {
                  OFFSET 3.10165 -0.590103 1.0647
                  CHANNELS 3 Zrotation Xrotation Yrotation
                  End Site
                  {
                    OFFSET 2.48547 -0.328903 0.83742
                  }
                }
              }
              JOINT lRing1
              {
                OFFSET 8.82822 0.546677 1.51678
                CHANNELS 3 Zrotation Xrotation Yrotation
                JOINT lRing2
                {
                  OFFSET 2.60934 -0.819778 -0.0198488
                  CHANNELS 3 Zrotation Xrotation Yrotation
                  End Site
                  {
                    OFFSET 2.33842 -0.294052 0.168128
                  }
                }
              }
              JOINT lPinky1
              {
                OFFSET 8.27202 -0.0477905 -0.4584
                CHANNELS 3 Zrotation Xrotation Yrotation
                JOINT lPinky2
                {
                  OFFSET 1.82734 -0.647385 -0.700984
                  CHANNELS 3 Zrotation Xrotation Yrotation
                  End Site
                  {
                    OFFSET 1.69225 -0.51767 -0.607171
                  }
                }
              }
            }
          }
        }
      }
    }
  }
  JOINT rButtock
  {
    OFFSET -8.77824 4.35084 1.2192
    CHANNELS 3 Zrotation Xrotation Yrotation
    JOINT rThigh
    {
      OFFSET 0 -1.70687 -2.19456
      CHANNELS 3 Zrotation Xrotation Yrotation
      JOINT rShin
      {
        OFFSET 0 -36.8199 0.73152
        CHANNELS 3 Zrotation Xrotation Yrotation
        JOINT rFoot
        {
          OFFSET 0.73152 -45.1104 -5.12064
          CHANNELS 3 Zrotation Xrotation Yrotation
          End Site
          {
            OFFSET -1.1221 -3.69964 12.103
          }
        }
      }
    }
  }
  JOINT lButtock
  {
    OFFSET 8.77824 4.35084 1.2192
    CHANNELS 3 Zrotation Xrotation Yrotation
    JOINT lThigh
    {
      OFFSET 0 -1.70687 -2.19456
      CHANNELS 3 Zrotation Xrotation Yrotation
      JOINT lShin
      {
        OFFSET 0 -36.8199 0.73152
        CHANNELS 3 Zrotation Xrotation Yrotation
        JOINT lFoot
        {
          OFFSET -0.73152 -45.1104 -5.12064
          CHANNELS 3 Zrotation Xrotation Yrotation
          End Site
          {
            OFFSET 1.1221 -3.69964 12.103
          }
        }
      }
    }
  }
}
MOTION
Frames:	9
Frame Time:	0.00833333
52.6377 85.5269 255.473 0.0 0.0 0.0 2.34101 -0.00222421 0.0637215 0.646597 0.00594978 0.111938 6.14661e-14 7.95139e-16 -1.49089e-16 1.84497e-13 9.54166e-15 -4.51925e-16 -0.0 0.0 0.0 -0.0 0.0 0.0 3.08107e-14 -1.03663e-16 4.96962e-17 6.4664e-13 -1.64619e-15 1.59028e-15 1.11306e-11 -3.39226e-12 -9.85972e-14 1.27256e-10 2.94586e-12 -6.36111e-14 3.00206e-10 -9.74808e-13 -3.84847e-13 5.18435e-10 -1.68569e-12 -6.79844e-13 3.00212e-10 -9.7325e-13 -3.97569e-13 7.73091 5.47488 0.417314 3.00206e-10 -9.75238e-13 -3.81667e-13 2.90554 0.965183 0.102902 3.00213e-10 -9.75039e-13 -3.84847e-13 10.2786 0.731801 0.0259123 3.00202e-10 -9.74045e-13 -3.78486e-13 2.22167 -0.733487 -0.20892 3.07152e-14 -1.04828e-16 -9.93923e-17 6.42251e-13 -2.54072e-15 -3.97569e-16 1.11061e-11 3.25411e-12 -1.46306e-13 1.27264e-10 -3.74098e-12 -2.54444e-14 3.00178e-10 -1.05321e-12 -3.94389e-13 5.18405e-10 -1.81928e-12 -6.91771e-13 3.00176e-10 -1.05237e-12 -3.78486e-13 -7.73091 5.47488 -0.417314 3.00178e-10 -1.05316e-12 -3.94389e-13 -2.90554 0.965183 -0.102902 3.00171e-10 -1.05316e-12 -3.95184e-13 -10.2786 0.731801 -0.0259123 3.00186e-10 -1.05038e-12 -4.0393e-13 -2.22167 -0.733487 0.20892 -2.03217e-16 0.0 -3.88251e-19 2.21547 -8.02974 -0.231358 0.00607183 8.97369 0.152073 -0.47767 -0.951459 0.0348619 2.03217e-16 0.0 3.88251e-19 1.35205 -1.92788 -0.00535769 0.00846667 -2.07867 0.0694609 0.42388 3.99897 -0.127292
51.5353 84.4054 243.126 -178.865 -18.4562 176.907 3.28662 1.92244 1.51576 0.3933 -2.30579 0.554434 0.84896 2.37618 4.65618 -1.48732 -4.56979 8.92555 -0.0 0.0 0.0 -0.0 0.0 0.0 1.02274e-14 4.40595e-14 4.63067e-14 21.7 15.1234 -2.01532 -5.4255 -2.7648 8.12353 0.00741538 1.9108 0.268006 5.22482e-10 -9.33031e-11 5.68544e-11 9.02695e-10 -1.58327e-10 9.5687e-11 5.22489e-10 -9.33072e-11 5.68406e-11 7.73091 5.47488 0.417314 5.22482e-10 -9.33061e-11 5.68551e-11 2.90554 0.965183 0.102902 5.22489e-10 -9.33041e-11 5.68525e-11 10.2786 0.731801 0.0259123 5.2248e-10 -9.33033e-11 5.68582e-11 2.22167 -0.733487 -0.20892 1.0153e-14 4.40557e-14 4.61281e-14 -22.5093 11.1329 1.2862 5.16196 -2.56959 -7.80427 -0.0404553 4.46426 -0.620552 1.43659e-10 6.48773e-11 1.6676e-10 2.5036e-10 1.14703e-10 2.89237e-10 1.43656e-10 6.48804e-11 1.66777e-10 -7.73091 5.47488 -0.417314 1.43661e-10 6.48791e-11 1.66763e-10 -2.90554 0.965183 -0.102902 1.43652e-10 6.48793e-11 1.66762e-10 -10.2786 0.731801 -0.0259123 1.43664e-10 6.48814e-11 1.66753e-10 -2.22167 -0.733487 0.20892 -2.03217e-16 0.0 -3.88251e-19 4.81245 -8.53477 2.725 0.0647462 15.1118 0.355559 -2.85719 -8.0443 -10.6844 2.03217e-16 0.0 3.88251e-19 0.0451167 -4.87427 -6.6189 -0.0218751 6.58861 -0.106108 0.711876 -2.01625 2.27344
51.5726 84.4058 243.175 -179.134 -18.1943 177.346 4.18884 3.97706 3.04895 0.149896 -4.74663 1.02233 1.32077 4.82233 9.60298 -1.5106 -9.03295 18.5392 -0.0 0.0 0.0 -0.0 0.0 0.0 -1.24336e-14 9.28647e-14 9.05278e-14 45.9741 31.0561 -4.66294 -10.3153 -5.5006 16.7683 -0.00423735 3.93557 0.553012 7.71239e-10 -2.2298e-10 1.21656e-10 1.33275e-09 -3.79311e-10 2.04902e-10 7.71247e-10 -2.2299e-10 1.21641e-10 7.73091 5.47488 0.417314 7.71239e-10 -2.22985e-10 1.21654e-10 2.90554 0.965183 0.102902 7.71246e-10 -2.22982e-10 1.21652e-10 10.2786 0.731801 0.0259123 7.71239e-10 -2.22981e-10 1.21657e-10 2.22167 -0.733487 -0.20892 -1.24867e-14 9.28581e-14 9.03166e-14 -46.879 22.8926 2.80312 9.86551 -5.12744 -16.105 0.0231395 9.17703 -1.28853 -2.03305e-11 1.47508e-10 3.49983e-10 -3.03912e-11 2.60306e-10 6.06988e-10 -2.03344e-11 1.47513e-10 3.50001e-10 -7.73091 5.47488 -0.417314 -2.03264e-11 1.47512e-10 3.49989e-10 -2.90554 0.965183 -0.102902 -2.03369e-11 1.47512e-10 3.49988e-10 -10.2786 0.731801 -0.0259123 -2.0328e-11 1.47513e-10 3.49979e-10 -2.22167 -0.733487 0.20892 -2.03217e-16 0.0 -3.88251e-19 7.61194 -9.02629 5.84538 0.075698 21.6031 0.588882 -8.27166 -14.6749 -22.5691 2.03217e-16 0.0 3.88251e-19 -2.08216 -7.81526 -13.6959 0.00558166 15.7551 -0.301527 1.56775 -8.34572 4.85781
51.6744 84.4024 243.217 -179.141 -17.9003 177.761 4.88421 5.75657 4.43972 -0.00547664 -6.92741 1.44866 1.39383 6.93992 14.0616 -0.280684 -12.3731 27.3779 -0.0 0.0 0.0 -0.0 0.0 0.0 -3.09392e-14 1.32386e-13 1.38821e-13 69.409 45.0966 -8.28252 -13.986 -7.62886 24.5737 -0.0316091 5.73189 0.80761 9.67035e-10 -2.7796e-10 1.71333e-10 1.67122e-09 -4.7161e-10 2.88421e-10 9.67045e-10 -2.77975e-10 1.71317e-10 7.73091 5.47488 0.417314 9.67035e-10 -2.77968e-10 1.71329e-10 2.90554 0.965183 0.102902 9.67042e-10 -2.77962e-10 1.71327e-10 10.2786 0.731801 0.0259123 9.67036e-10 -2.77962e-10 1.71332e-10 2.22167 -0.733487 -0.20892 -3.09714e-14 1.32377e-13 1.38583e-13 -69.2765 33.3244 4.53243 13.4372 -7.13792 -23.5828 0.175579 13.3864 -1.90786 -1.69379e-10 1.96738e-10 5.01069e-10 -2.8573e-10 3.47747e-10 8.69094e-10 -1.69384e-10 1.96746e-10 5.01088e-10 -7.73091 5.47488 -0.417314 -1.69373e-10 1.96744e-10 5.01077e-10 -2.90554 0.965183 -0.102902 -1.69385e-10 1.96744e-10 5.01077e-10 -10.2786 0.731801 -0.0259123 -1.69378e-10 1.96745e-10 5.01067e-10 -2.22167 -0.733487 0.20892 -2.03217e-16 0.0 -3.88251e-19 10.1628 -9.46607 8.66142 0.0348724 27.3864 0.821435 -15.4807 -19.1038 -33.8989 2.03217e-16 0.0 3.88251e-19 -4.5895 -10.2169 -20.1061 0.0878244 23.9224 -0.497817 2.83 -13.9425 7.28582
51.782 84.4061 243.257 -179.13 -17.5863 178.172 5.27376 6.86278 5.45467 -0.0159473 -8.45975 1.76259 1.26972 8.41294 17.2135 1.16103 -14.1832 33.7018 -0.0 0.0 0.0 -0.0 0.0 0.0 -3.90559e-14 1.48696e-13 1.97294e-13 87.6022 54.6357 -12.4496 -16.196 -8.87066 30.0876 -0.0597413 6.95758 0.982707 1.03043e-09 -1.46199e-10 1.83197e-10 1.78071e-09 -2.42196e-10 3.07696e-10 1.03044e-09 -1.46216e-10 1.83181e-10 7.73091 5.47488 0.417314 1.03043e-09 -1.46208e-10 1.8319e-10 2.90554 0.965183 0.102902 1.03044e-09 -1.46201e-10 1.8319e-10 10.2786 0.731801 0.0259123 1.03043e-09 -1.46201e-10 1.83194e-10 2.22167 -0.733487 -0.20892 -3.9069e-14 1.48686e-13 1.97045e-13 -85.4741 40.5018 6.18458 15.604 -8.32444 -28.841 0.339219 16.3433 -2.36196 -2.81074e-10 1.62469e-10 5.7181e-10 -4.77537e-10 2.89784e-10 9.92085e-10 -2.81079e-10 1.62478e-10 5.71829e-10 -7.73091 5.47488 -0.417314 -2.81067e-10 1.62475e-10 5.71819e-10 -2.90554 0.965183 -0.102902 -2.81079e-10 1.62476e-10 5.71819e-10 -10.2786 0.731801 -0.0259123 -2.81074e-10 1.62476e-10 5.7181e-10 -2.22167 -0.733487 0.20892 -2.03217e-16 0.0 -3.88251e-19 11.9916 -9.83375 10.7013 -0.0262394 31.4013 1.00198 -21.6301 -21.0096 -42.1572 2.03217e-16 0.0 3.88251e-19 -6.64665 -11.7721 -24.6233 0.183178 29.5927 -0.655572 4.01271 -17.8116 9.09732
51.8674 84.4248 243.296 -179.174 -17.3366 178.555 5.32455 7.00124 5.95155 0.163661 -9.0855 1.92001 1.2198 9.09767 18.4787 1.71871 -14.6996 36.2091 -0.0 0.0 0.0 -0.0 0.0 0.0 -3.02523e-14 1.27582e-13 2.85893e-13 95.4503 58.14 -14.8716 -17.0078 -9.30911 32.3038 -0.0712466 7.35832 1.0403 8.61363e-10 3.39482e-10 1.30644e-10 1.48815e-09 5.97258e-10 2.17461e-10 8.61372e-10 3.39467e-10 1.3063e-10 7.73091 5.47488 0.417314 8.61362e-10 3.39475e-10 1.30635e-10 2.90554 0.965183 0.102902 8.61371e-10 3.3948e-10 1.30636e-10 10.2786 0.731801 0.0259123 8.61364e-10 3.3948e-10 1.30639e-10 2.22167 -0.733487 -0.20892 -3.02423e-14 1.27573e-13 2.85662e-13 -92.1762 43.1727 7.15607 16.3816 -8.72809 -30.9003 0.419589 17.5587 -2.55412 -3.41974e-10 -2.1546e-11 5.06278e-10 -5.83234e-10 -2.87847e-11 8.79151e-10 -3.41978e-10 -2.15381e-11 5.06297e-10 -7.73091 5.47488 -0.417314 -3.41968e-10 -2.15404e-11 5.06288e-10 -2.90554 0.965183 -0.102902 -3.4198e-10 -2.15402e-11 5.06288e-10 -10.2786 0.731801 -0.0259123 -3.41974e-10 -2.15406e-11 5.0628e-10 -2.22167 -0.733487 0.20892 -2.03217e-16 0.0 -3.88251e-19 12.7801 -10.1563 11.6738 -0.058012 32.9375 1.07537 -24.227 -21.4125 -45.4662 2.03217e-16 0.0 3.88251e-19 -7.47214 -12.5014 -26.3609 0.229409 31.7607 -0.723513 4.56314 -19.349 9.86494
52.0382 84.4538 243.361 -179.214 -16.8405 179.31 5.15553 6.45315 6.07427 0.469387 -9.06405 1.96349 1.30862 9.25778 18.3792 1.40947 -14.5413 35.9342 -0.0 0.0 0.0 -0.0 0.0 0.0 -9.47602e-15 7.99709e-14 3.95255e-13 94.5551 57.4795 -14.8037 -16.9569 -9.29779 32.1409 -0.0672151 7.17115 1.0135 5.28496e-10 1.07356e-09 3.26269e-11 9.12277e-10 1.86485e-09 4.99383e-11 5.28504e-10 1.07355e-09 3.26154e-11 7.73091 5.47488 0.417314 5.28495e-10 1.07355e-09 3.26146e-11 2.90554 0.965183 0.102902 5.28505e-10 1.07356e-09 3.26165e-11 10.2786 0.731801 0.0259123 5.28494e-10 1.07356e-09 3.26198e-11 2.22167 -0.733487 -0.20892 -9.44017e-15 7.99648e-14 3.95063e-13 -91.7977 42.6504 7.40684 16.2894 -8.6781 -30.6546 0.4155 17.531 -2.54928 -3.66522e-10 -3.10958e-10 3.44543e-10 -6.2729e-10 -5.30783e-10 5.9966e-10 -3.66524e-10 -3.10952e-10 3.44559e-10 -7.73091 5.47488 -0.417314 -3.66517e-10 -3.10954e-10 3.44552e-10 -2.90554 0.965183 -0.102902 -3.66527e-10 -3.10954e-10 3.44552e-10 -10.2786 0.731801 -0.0259123 -3.66519e-10 -3.10955e-10 3.44546e-10 -2.22167 -0.733487 0.20892 -2.03217e-16 0.0 -3.88251e-19 12.8122 -10.4538 11.881 -0.0535467 32.7035 1.06207 -23.922 -21.3099 -45.1666 2.03217e-16 0.0 3.88251e-19 -7.28001 -12.7378 -26.0809 0.221863 31.4276 -0.715297 4.52948 -19.246 9.82803
52.1038 84.4526 243.374 -179.142 -16.7411 179.384 4.90585 5.6869 6.01381 0.790743 -8.78362 1.95037 1.45907 9.22583 17.7335 0.778607 -14.1566 34.5581 -0.0 0.0 0.0 -0.0 0.0 0.0 1.2288e-14 2.96481e-14 4.87524e-13 90.1833 55.1907 -13.7428 -16.5535 -9.09932 31.004 -0.058223 6.79105 0.959068 2.05466e-10 1.75902e-09 -6.52112e-11 3.53489e-10 3.04828e-09 -1.17191e-10 2.05472e-10 1.75902e-09 -6.52198e-11 7.73091 5.47488 0.417314 2.05464e-10 1.75902e-09 -6.52253e-11 2.90554 0.965183 0.102902 2.05475e-10 1.75902e-09 -6.52225e-11 10.2786 0.731801 0.0259123 2.05462e-10 1.75902e-09 -6.52192e-11 2.22167 -0.733487 -0.20892 1.23404e-14 2.96447e-14 4.87366e-13 -88.5276 40.8708 7.33696 15.8508 -8.4479 -29.4919 0.376249 16.9941 -2.46343 -3.74128e-10 -5.89976e-10 1.82389e-10 -6.42153e-10 -1.01489e-09 3.19408e-10 -3.74128e-10 -5.89972e-10 1.82404e-10 -7.73091 5.47488 -0.417314 -3.74125e-10 -5.89973e-10 1.82397e-10 -2.90554 0.965183 -0.102902 -3.74133e-10 -5.89974e-10 1.82397e-10 -10.2786 0.731801 -0.0259123 -3.74123e-10 -5.89975e-10 1.82393e-10 -2.22167 -0.733487 0.20892 -2.03217e-16 0.0 -3.88251e-19 12.5151 -10.7 11.7392 -0.0348277 31.7679 1.01471 -22.4531 -21.0153 -43.4047 2.03217e-16 0.0 3.88251e-19 -6.68673 -12.7415 -24.9984 0.193389 30.1056 -0.677091 4.25575 -18.4782 9.46176
52.1494 84.4632 243.354 -179.071 -16.7061 179.298 4.71497 5.17055 5.95949 1.01939 -8.6323 1.93843 1.57801 9.32847 17.3641 0.368309 -13.9901 33.7581 -0.0 0.0 0.0 -0.0 0.0 0.0 2.40547e-14 3.98734e-16 5.24841e-13 87.6847 53.7906 -13.25 -16.2963 -8.96538 30.3005 -0.0539381 6.61302 0.933589 6.59106e-11 2.09886e-09 -1.17226e-10 1.12171e-10 3.63522e-09 -2.06242e-10 6.59166e-11 2.09886e-09 -1.17232e-10 7.73091 5.47488 0.417314 6.59096e-11 2.09887e-09 -1.17238e-10 2.90554 0.965183 0.102902 6.5921e-11 2.09887e-09 -1.17236e-10 10.2786 0.731801 0.0259123 6.59063e-11 2.09887e-09 -1.17232e-10 2.22167 -0.733487 -0.20892 2.41025e-14 3.96793e-16 5.24692e-13 -86.6192 39.7611 7.38841 15.5847 -8.30695 -28.8006 0.353936 16.6817 -2.41374 -3.84205e-10 -7.42806e-10 1.15604e-10 -6.60274e-10 -1.27979e-09 2.04193e-10 -3.84205e-10 -7.42803e-10 1.15616e-10 -7.73091 5.47488 -0.417314 -3.84203e-10 -7.42805e-10 1.1561e-10 -2.90554 0.965183 -0.102902 -3.8421e-10 -7.42805e-10 1.1561e-10 -10.2786 0.731801 -0.0259123 -3.84198e-10 -7.42807e-10 1.15607e-10 -2.22167 -0.733487 0.20892 -2.03217e-16 0.0 -3.88251e-19 12.3257 -10.8652 11.6666 -0.023905 31.199 0.985969 -21.5683 -20.8128 -42.3238 2.03217e-16 0.0 3.88251e-19 -6.33796 -12.7597 -24.3378 0.177328 29.3069 -0.655335 4.0976 -18.0187 9.24662
